<?xml version="1.0" standalone="no"?>
<!DOCTYPE svg PUBLIC "-//W3C//DTD SVG 20010904//EN"
 "http://www.w3.org/TR/2001/REC-SVG-20010904/DTD/svg10.dtd">
<svg version="1.0" xmlns="http://www.w3.org/2000/svg"
 width="2500.000000pt" height="447.000000pt" viewBox="0 0 2500.000000 447.000000"
 preserveAspectRatio="xMidYMid meet">

<g transform="translate(0.000000,447.000000) scale(0.100000,-0.100000)"
fill="#10113e" stroke="none">
<path d="M6294 2157 l-6181 -2152 6193 -3 c3407 -1 8982 -1 12389 0 l6194 3
-6187 2153 c-3403 1184 -6196 2152 -6207 2151 -11 0 -2802 -969 -6201 -2152z
m6317 883 c234 -27 430 -121 600 -290 136 -134 227 -291 276 -479 21 -82 25
-118 25 -246 0 -128 -4 -164 -25 -246 -49 -188 -140 -345 -276 -479 -47 -47
-112 -102 -144 -123 -348 -230 -786 -230 -1134 0 -32 21 -97 76 -144 123 -136
134 -227 291 -276 479 -21 82 -25 118 -25 246 0 128 4 164 25 246 49 188 140
345 276 479 131 130 260 207 428 255 140 41 254 51 394 35z"/>
<path d="M12353 2961 c-302 -49 -572 -253 -704 -535 -56 -121 -80 -219 -86
-361 -12 -263 77 -500 254 -686 179 -187 386 -283 638 -296 275 -14 525 85
716 284 189 197 279 433 266 702 -6 137 -31 238 -86 357 -117 250 -330 431
-598 510 -69 20 -116 26 -218 29 -71 2 -153 0 -182 -4z m97 -75 c0 -2 -16 -30
-35 -62 -83 -137 -105 -343 -54 -492 21 -60 78 -159 108 -186 19 -18 21 -18
54 2 123 77 173 313 113 538 -13 49 -26 96 -30 105 -5 11 2 24 21 38 l27 22
42 -83 c23 -46 46 -82 52 -81 6 2 33 16 60 33 27 16 64 36 84 44 32 14 37 13
66 -4 18 -11 32 -24 32 -29 0 -5 -25 -19 -55 -31 -77 -31 -148 -97 -174 -162
-21 -55 -41 -157 -41 -217 l0 -34 90 6 c180 12 307 111 335 262 l7 40 29 -35
c15 -19 29 -40 29 -47 0 -19 -31 -82 -68 -141 -19 -29 -31 -56 -27 -60 4 -4
51 -7 105 -7 l99 0 5 -29 c4 -16 4 -31 2 -33 -2 -2 -34 -9 -70 -15 -49 -8 -91
-8 -161 0 -122 15 -175 15 -257 -2 -230 -49 -388 -241 -415 -503 -13 -126 12
-243 69 -316 13 -18 16 -15 45 40 41 78 53 139 50 253 -2 93 15 176 33 165 15
-10 40 -143 40 -218 0 -124 -27 -193 -147 -374 -60 -92 -79 -113 -98 -113 -36
0 -39 17 -11 51 36 42 42 76 24 124 -56 141 -68 180 -77 245 -14 105 1 211 50
340 27 71 38 114 34 132 -8 34 -79 99 -144 132 -105 53 -212 66 -385 45 -91
-12 -207 -2 -228 19 -12 12 7 68 23 63 33 -10 136 -12 166 -4 l32 8 -38 58
c-21 32 -46 78 -56 102 l-16 44 27 36 c27 36 43 34 44 -6 0 -26 38 -105 65
-138 37 -43 113 -88 180 -106 74 -19 175 -20 175 -2 0 42 -23 189 -36 229 -21
64 -82 130 -149 162 -31 14 -63 26 -71 26 -24 0 -11 23 24 43 l32 19 95 -51
96 -51 14 37 c21 54 76 157 89 165 11 8 76 11 76 4z m-460 -853 c29 -69 86
-128 164 -167 39 -20 55 -33 52 -43 -4 -8 -6 -19 -6 -24 0 -5 -28 -9 -62 -9
-126 -1 -227 -42 -324 -133 l-62 -57 -14 22 c-14 21 -13 26 9 61 13 22 23 40
21 42 -2 1 -22 12 -46 24 -38 19 -62 51 -62 81 0 5 21 -1 48 -13 65 -29 177
-29 248 2 l51 22 -48 117 c-42 103 -46 118 -31 124 32 13 38 8 62 -49z m1095
47 c4 -6 -11 -57 -34 -113 -22 -56 -42 -108 -43 -115 -2 -8 16 -22 42 -32 64
-27 190 -26 249 0 l43 20 -7 -28 c-8 -35 -29 -57 -66 -72 -35 -15 -34 -14 -8
-56 19 -31 19 -35 4 -58 l-17 -25 -46 45 c-100 98 -174 132 -301 141 -47 3
-89 11 -93 17 -15 22 -7 34 36 50 95 36 177 123 192 203 6 33 35 46 49 23z
m-415 -900 c0 -5 -8 -10 -17 -10 -10 0 -28 -3 -40 -6 -34 -9 -48 27 -27 68
l17 32 33 -37 c19 -20 34 -41 34 -47z"/>
</g>
</svg>
